<svg width="32px" height="32px" viewBox="0 0 32 32" version="1.1" xmlns="http://www.w3.org/2000/svg" xmlns:xlink="http://www.w3.org/1999/xlink">
    <g id="Bold" stroke="none" stroke-width="1" fill="none" fill-rule="evenodd">
        <g id="Artboard" transform="translate(-864.000000, -327.000000)">
            <g id="send-2" transform="translate(864.000000, 327.000000)">
                <path d="M9.4788545,7.94542185 C1.38552094,10.6520885 1.38552094,15.0654214 9.4788545,17.7587547 L13.0521876,18.9454219 L14.2388547,22.5187543 C16.932188,30.6120879 21.3588556,30.6120879 24.0521889,22.5187543 L28.0655187,10.4920883 C29.8521854,5.09208806 26.9188538,2.14542178 21.5188535,3.94542181 L9.4788545,7.94542185 Z M16.8788541,16.2120883 C16.6788541,16.4120883 16.4255211,16.505422 16.1721878,16.505422 C15.9188545,16.505422 15.6655215,16.4120883 15.4655215,16.2120883 C15.0788548,15.8254216 15.0788548,15.1854223 15.4655215,14.7987556 L20.5321871,9.70542208 C20.9188538,9.31875543 21.5588531,9.31875543 21.9455198,9.70542208 C22.3321864,10.0920887 22.3321864,10.7320887 21.9455198,11.1187553 L16.8788541,16.2120883 Z" id="Vector" fill="#292D32"></path>
                <path d="M32,0 L32,32 L0,32 L0,0 L32,0 Z" id="Vector" opacity="0" transform="translate(16.000000, 16.000000) rotate(-180.000000) translate(-16.000000, -16.000000) "></path>
            </g>
        </g>
    </g>
</svg>
